<svg id="Capa_1" enable-background="new 0 0 512 512" height="512" viewBox="0 0 512 512" width="512" xmlns="http://www.w3.org/2000/svg"><g><g><path d="m30.913 232.587c0-60.123 23.413-116.647 65.926-159.16s99.038-65.927 159.161-65.927 116.647 23.413 159.16 65.926 65.926 99.037 65.926 159.16h-450.173z" fill="#ed9b83"/><path d="m342.74 504.5h-173.479l-59.407-48.756c16.923-45.605 53.367-65.115 53.367-65.115h185.56s36.444 19.51 53.367 65.115z" fill="#5c6b84"/><circle cx="256" cy="401.297" fill="#ffdcce" r="52.877"/><path d="m287.759 9.723c-10.434-1.464-21.037-2.223-31.759-2.223-60.123 0-116.647 23.413-159.16 65.926s-65.927 99.038-65.927 159.16h92.357c.013-110.558 63.51-202.636 164.489-222.863z" fill="#e7886e"/><path d="m229.3 390.629h-66.08s-36.444 19.51-53.367 65.115l30.661 25.163c6.92-43.855 43.649-77.783 88.786-80.425z" fill="#525e77"/><path d="m445.852 232.587c0 104.852-84.999 179.784-189.851 179.784s-189.852-74.932-189.852-179.784 84.999-189.852 189.851-189.852 189.852 85 189.852 189.852z" fill="#ed9b83"/><path d="m123.27 232.62c0-74.5 28.823-140.617 78.516-182.017-78.434 23.333-135.637 95.972-135.637 181.984 0 86.653 58.055 152.866 137.391 173.242-49.099-41.647-80.27-103.783-80.27-173.209z" fill="#e7886e"/><path d="m343.85 105.488c-21.04-14.62-49.22-14.611-69.858.57-.482.355-.955.712-1.417 1.07-4.864 3.767-10.719 5.65-16.574 5.65s-11.71-1.883-16.574-5.65c-.463-.358-.935-.715-1.417-1.07-20.638-15.181-48.819-15.19-69.858-.57-41.027 28.508-67.629 76.306-66.745 129.639.649 39.176 16.323 74.9 44.3 100.828 10.114 9.373 21.541 17.256 33.959 23.535 16.338 8.262 35.894 7.801 51.552-1.688.447-.271.887-.546 1.32-.824 7.177-4.605 15.321-6.908 23.464-6.908s16.286 2.303 23.464 6.908c.433.278.873.553 1.32.824 15.658 9.489 35.213 9.95 51.552 1.688 12.418-6.279 23.844-14.162 33.959-23.535 27.977-25.928 43.651-61.652 44.3-100.828.882-53.333-25.72-101.131-66.747-129.639z" fill="#ffdcce"/><g><g><g><ellipse cx="163.224" cy="257.95" fill="#ff97c0" rx="34.233" ry="27.261"/></g><g><ellipse cx="348.777" cy="257.95" fill="#ff97c0" rx="34.233" ry="27.261"/></g></g></g><path d="m169.261 455.744v48.756h-67.874c0-18.765 3.342-34.954 8.467-48.756z" fill="#ffdcce"/><path d="m342.74 455.744v48.756h67.874c0-18.765-3.342-34.954-8.467-48.756z" fill="#ffdcce"/><circle cx="360.555" cy="390.778" fill="#ff748f" r="81.88"/><path d="m371.162 390.778 21.228-21.228c2.929-2.929 2.929-7.678 0-10.606-2.928-2.929-7.677-2.929-10.606 0l-21.228 21.228-21.228-21.228c-2.929-2.929-7.678-2.929-10.606 0-2.929 2.929-2.929 7.678 0 10.606l21.228 21.228-21.228 21.228c-2.929 2.929-2.929 7.677 0 10.606 1.464 1.464 3.384 2.197 5.303 2.197s3.839-.732 5.303-2.197l21.228-21.228 21.228 21.228c1.464 1.464 3.384 2.197 5.303 2.197s3.839-.732 5.303-2.197c2.929-2.929 2.929-7.678 0-10.606z" fill="#fff"/><path d="m66.149 232.587c0-16.565 2.127-32.633 6.113-47.951-2.004-.253-4.041-.398-6.113-.398-26.702 0-48.349 21.647-48.349 48.349 0 26.703 21.647 48.349 48.349 48.349 2.135 0 4.233-.153 6.295-.421-4.1-15.085-6.295-31.12-6.295-47.928z" fill="#ffcabd"/><path d="m445.852 184.238c-2.072 0-4.11.146-6.113.398 3.986 15.317 6.113 31.385 6.113 47.951 0 16.809-2.195 32.843-6.295 47.928 2.062.268 4.16.421 6.295.421 26.702 0 48.349-21.646 48.349-48.349 0-26.702-21.647-48.349-48.349-48.349z" fill="#ffdcce"/><path d="m123.27 232.62c0-39.396 8.065-76.445 23.008-108.737-28.324 28.615-45.588 68.117-44.873 111.244.649 39.176 16.323 74.9 44.3 100.828 1.464 1.356 2.963 2.672 4.481 3.966-17.168-31.953-26.916-68.487-26.916-107.301z" fill="#ffcabd"/><path d="m139.336 495.931c0-14.355 3.169-27.968 8.835-40.187h-38.318c-5.124 13.802-8.467 29.99-8.467 48.756h38.105c-.103-2.823-.155-5.68-.155-8.569z" fill="#ffcabd"/><path d="m302.338 368.867c0-16.33 4.085-31.703 11.281-45.163-21.122 14.808-34.944 39.32-34.944 67.074 0 45.221 36.659 81.88 81.88 81.88 12.565 0 24.464-2.838 35.104-7.896-51.774-1.383-93.321-43.786-93.321-95.895z" fill="#fd5f7e"/></g><g><path d="m175.675 230.755c0 4.142 3.358 7.5 7.5 7.5s7.5-3.358 7.5-7.5v-11.933l4.346 1.165c.65.174 1.303.257 1.946.257 3.311 0 6.342-2.21 7.24-5.561 1.072-4.001-1.302-8.113-5.304-9.186l-28.063-7.52c-3.996-1.072-8.113 1.302-9.186 5.303-1.072 4.001 1.302 8.113 5.304 9.186l9.647 2.585c-.591 1.072-.929 2.303-.929 3.614v12.09z"/><path d="m242.455 244.965c3.419-3.924 8.357-6.174 13.546-6.174s10.126 2.25 13.545 6.174c2.72 3.123 7.459 3.448 10.582.727 3.123-2.722 3.448-7.459.727-10.582-6.269-7.193-15.328-11.319-24.854-11.319s-18.585 4.126-24.854 11.319c-2.721 3.123-2.396 7.86.727 10.582 3.121 2.721 7.859 2.396 10.581-.727z"/><path d="m350.347 203.282c-1.072-4.001-5.187-6.375-9.186-5.303l-28.063 7.52c-4.001 1.072-6.375 5.185-5.304 9.186.898 3.351 3.928 5.561 7.24 5.561.643 0 1.296-.083 1.946-.257l4.346-1.165v11.933c0 4.142 3.358 7.5 7.5 7.5s7.5-3.358 7.5-7.5v-12.089c0-1.311-.338-2.542-.929-3.614l9.646-2.584c4.002-1.075 6.376-5.187 5.304-9.188z"/><path d="m445.852 288.436c30.795 0 55.849-25.054 55.849-55.849 0-15.445-6.304-29.443-16.472-39.563-7.261-42.576-26.272-82.166-55.092-114.632-2.749-3.098-7.49-3.38-10.588-.63s-3.38 7.49-.63 10.588c23.661 26.655 40.259 58.441 48.554 92.737-10.823-4.546-25.592-5.158-30.231-3.523-3.683 1.302-5.741 5.201-4.763 8.962 3.888 14.939 5.872 30.439 5.872 46.062 0 31.386-8.116 61.345-23.543 87.177-5.392-4.13-11.202-7.589-17.309-10.367-.04-.018-.08-.038-.12-.056 13.13-22.046 20.274-47.46 20.715-74.09.896-54.045-25.259-104.857-69.964-135.922-23.639-16.426-55.966-16.882-80.148 1.87-7.017 5.434-16.947 5.434-23.961.002-24.192-18.762-56.52-18.291-80.15-1.871-44.706 31.064-70.86 81.876-69.964 135.922.534 32.225 10.743 62.386 29.521 87.222 2.498 3.304 7.201 3.958 10.506 1.459 3.304-2.498 3.957-7.202 1.459-10.506-16.848-22.282-26.007-49.4-26.488-78.424-.813-49.036 22.935-95.15 63.526-123.355 18.534-12.878 43.638-13.127 62.404 1.411 12.419 9.618 29.914 9.618 42.335-.002 18.722-14.5 43.82-14.319 62.401-1.409 40.591 28.206 64.339 74.319 63.526 123.355-.415 25.041-7.365 48.859-20.154 69.235-7.404-1.917-15.066-2.839-22.387-2.839-33.283 0-63.74 18.286-79.207 47.952-7.733-4.443-16.444-6.78-25.348-6.78-9.746 0-19.26 2.8-27.514 8.096-13.936 8.932-31.32 9.27-45.438 2.131-10.181-5.148-19.656-11.447-28.164-18.722-3.147-2.691-7.882-2.322-10.574.826s-2.322 7.882.826 10.574c9.417 8.052 19.895 15.019 31.143 20.707 8.713 4.406 18.261 6.594 27.757 6.594 11.317 0 22.535-3.064 32.549-9.486 5.833-3.743 12.546-5.721 19.414-5.721s13.582 1.978 19.415 5.721c.025.016.051.031.075.047-2.797 8.65-4.315 17.871-4.315 27.44 0 4.179.332 8.959 1.009 13.432-52.95 4.167-106.519-11.944-145.332-47.913-47.468-43.992-63.044-109.157-47.371-169.605 1.066-4.024-1.395-6.812-1.077-6.359-1.994-2.847-4.738-3.123-7-3.338-7.837-.753-15.527.202-22.507 2.481-1.481.481-2.946 1.01-4.381 1.613 9.315-38.654 29.032-73.766 57.625-102.36 41.099-41.097 95.74-63.73 153.859-63.73 52.36 0 102.888 18.805 142.276 52.95 3.13 2.714 7.867 2.375 10.58-.754 2.713-3.13 2.375-7.867-.754-10.58-42.115-36.509-96.133-56.616-152.102-56.616-62.126 0-120.533 24.193-164.463 68.124-34.33 34.33-56.681 77.471-64.763 124.898-10.169 10.12-16.474 24.12-16.474 39.565 0 30.795 25.054 55.849 55.849 55.849.269 0 .543-.01.815-.014 9.285 30.043 26.161 57.068 49.693 78.877 9.826 9.106 20.59 17.102 32.101 23.943-12.856 9.688-33.909 29.487-45.934 61.886-.001.002-.002.003-.002.005-5.929 15.97-8.936 33.252-8.936 51.367 0 4.142 3.358 7.5 7.5 7.5h309.227c4.142 0 7.5-3.358 7.5-7.5 0-14.266-1.873-28.049-5.571-41.059 22.624-16.233 37.392-42.755 37.392-72.663 0-23.418-9.057-44.756-23.846-60.709 8.071-12.996 14.413-26.978 18.942-41.647.274.004.551.014.822.014zm-382.885-15.123c-21.042-1.629-37.667-19.272-37.667-40.726 0-21.447 16.604-39.041 37.562-40.717-5.66 26.983-5.609 55.123.105 81.443zm386.066 0c5.555-25.576 5.913-53.757.105-81.444 20.955 1.67 37.562 19.266 37.562 40.717.001 21.455-16.624 39.098-37.667 40.727zm-173.301 145.687c2.086 6.275 4.866 12.284 8.311 17.967-7.96 6.296-17.724 9.707-28.043 9.707-19.724 0-36.933-12.97-43.017-30.997 20.399 4.055 41.846 5.173 62.749 3.323zm-160.545 44.245h46.574v33.755h-52.682c.607-11.773 2.652-23.083 6.108-33.755zm61.574-7.5c0-4.143-3.358-7.5-7.5-7.5h-48.089c13.483-28.146 34.467-43.845 42.394-49.038 10.518 5.085 21.549 9.267 32.977 12.509 2.26 12.983 8.708 24.878 18.497 33.929 11.18 10.336 25.727 16.029 40.961 16.029 13.545 0 26.363-4.425 36.874-12.582 11.102 12.867 25.744 22.485 42.367 27.416v20.492h-158.481zm222.385 15.655c2.057 8.224 3.32 16.786 3.776 25.6h-52.682v-17.44c16.722 1.931 33.719-.867 48.906-8.16zm-38.591-6.242c-.026 0-.051-.002-.077-.002-40.894-.046-74.303-33.422-74.303-74.378 0-40.85 33.205-74.38 74.38-74.38 40.987 0 74.38 33.392 74.38 74.38 0 41.275-33.651 74.38-74.38 74.38z"/></g></g></svg>